<?xml version="1.0" standalone="no"?>
<!DOCTYPE svg PUBLIC "-//W3C//DTD SVG 20010904//EN"
 "http://www.w3.org/TR/2001/REC-SVG-20010904/DTD/svg10.dtd">
<svg version="1.0" xmlns="http://www.w3.org/2000/svg"
 width="362.000000pt" height="388.000000pt" viewBox="0 0 362.000000 388.000000"
 preserveAspectRatio="xMidYMid meet">

<g transform="translate(0.000000,388.000000) scale(0.100000,-0.100000)"
fill="#000000" stroke="none">
<path d="M2500 3074 c-88 -24 -154 -74 -211 -162 -74 -113 -202 -342 -195
-349 3 -4 43 4 88 17 102 28 148 35 148 23 0 -6 -30 -18 -67 -28 -94 -25 -235
-81 -302 -120 -84 -50 -441 -370 -441 -396 0 -19 53 -20 135 -4 47 10 89 15
92 11 4 -3 1 -6 -5 -6 -7 0 -12 -5 -12 -11 0 -17 73 -3 129 26 l48 24 -5 -25
c-3 -19 0 -24 15 -24 20 0 106 50 117 69 11 18 26 13 26 -9 0 -11 5 -20 10
-20 23 0 87 33 113 57 l27 27 0 -27 c0 -47 31 -31 117 60 47 50 83 81 83 72 0
-20 -28 -58 -89 -122 -51 -53 -106 -77 -216 -96 -38 -7 -92 -19 -120 -26 -27
-8 -68 -17 -89 -21 -38 -7 -39 -7 -15 -20 13 -7 42 -13 65 -14 22 0 62 -7 88
-16 34 -12 62 -14 99 -9 29 4 71 6 94 6 36 -1 48 5 98 50 31 29 70 72 87 96
37 54 47 49 24 -11 -19 -51 -101 -132 -163 -161 -30 -15 -59 -19 -142 -18
-130 2 -200 17 -276 56 l-60 32 -162 -1 -161 -1 -44 -35 c-56 -46 -100 -73
-266 -165 -177 -97 -230 -145 -200 -180 28 -34 297 1 661 86 102 24 97 24 97
11 0 -32 -541 -150 -691 -150 -62 0 -109 26 -109 61 0 29 -26 23 -70 -17 -42
-39 -50 -67 -26 -100 12 -16 26 -19 78 -18 52 1 207 32 306 60 13 4 22 2 22
-4 0 -15 -87 -45 -223 -77 -138 -33 -183 -27 -214 25 -9 17 -24 30 -31 30 -16
0 -89 -54 -114 -84 -22 -27 -23 -65 -1 -73 22 -9 128 10 296 52 163 41 189 43
122 8 -67 -35 -281 -83 -372 -83 -67 0 -74 2 -90 26 l-17 26 -23 -26 c-29 -34
-39 -72 -23 -91 20 -24 83 -17 240 24 233 62 709 190 780 211 36 10 101 21
145 25 173 14 458 131 569 236 90 83 196 259 241 398 10 28 19 50 20 49 9 -9
-18 -116 -48 -190 -44 -110 -94 -186 -177 -270 -56 -56 -85 -75 -190 -126
-156 -75 -288 -117 -410 -131 -52 -6 -133 -22 -180 -35 -47 -13 -157 -43 -245
-66 -88 -23 -257 -69 -375 -103 -224 -63 -302 -73 -405 -53 -39 8 -45 5 -150
-65 -136 -91 -278 -226 -273 -261 3 -22 6 -23 78 -21 97 3 266 29 349 55 98
30 210 87 366 188 247 160 355 201 580 221 147 13 252 26 284 35 36 11 22 -17
-20 -38 -24 -13 -58 -18 -111 -18 -43 0 -78 -4 -78 -9 0 -11 149 -52 213 -59
41 -4 52 -1 74 19 l25 24 -6 -40 c-20 -125 -19 -150 7 -201 14 -27 58 -87 98
-134 106 -125 114 -155 59 -205 -37 -34 -52 -72 -39 -97 11 -21 12 -21 28 12
18 38 52 60 93 60 15 0 30 5 33 10 16 26 96 -1 188 -64 21 -14 41 -26 44 -26
6 0 -1 44 -12 73 -6 13 -2 17 14 17 41 0 164 -40 176 -57 22 -30 30 -4 10 32
-19 37 -48 53 -249 141 -170 74 -226 128 -234 227 -4 53 3 78 73 245 30 73 28
80 -44 117 -109 56 -110 86 -2 36 78 -36 141 -50 141 -32 0 6 -6 11 -12 11
-19 1 -64 37 -56 45 4 4 29 0 57 -10 52 -17 131 -17 132 0 0 6 -20 16 -45 23
-26 7 -44 17 -41 23 4 5 42 9 85 9 43 0 82 5 85 10 3 6 -1 10 -9 10 -31 0 -15
18 22 25 20 3 56 15 79 26 53 25 199 178 236 247 27 50 51 150 49 202 -1 14 4
37 10 53 8 20 7 31 -1 41 -8 10 -9 16 -1 21 15 9 12 120 -5 190 -8 33 -14 74
-14 90 l0 30 14 -25 c8 -14 22 -46 30 -72 9 -27 21 -48 26 -48 5 0 25 33 45
73 20 39 44 83 54 97 9 14 22 48 29 75 7 28 23 69 37 92 27 47 24 46 244 83
137 23 190 37 190 50 0 19 -57 61 -110 81 -30 11 -113 34 -185 49 -71 16 -184
48 -250 70 -148 51 -267 80 -320 79 -22 0 -65 -7 -95 -15z m324 -142 c9 -15
-23 -52 -39 -46 -15 6 -20 35 -8 47 9 10 41 9 47 -1z m121 -370 c0 -18 -20
-15 -23 4 -3 10 1 15 10 12 7 -3 13 -10 13 -16z m-65 -88 c0 -8 -4 -12 -10 -9
-5 3 -10 10 -10 16 0 5 5 9 10 9 6 0 10 -7 10 -16z m-1070 -545 c0 -29 -220
-90 -332 -93 -73 -1 -107 16 -94 50 6 15 8 16 24 0 11 -9 36 -16 61 -16 50 0
219 33 276 54 49 18 65 19 65 5z m520 -26 c0 -42 -130 -155 -198 -172 -68 -18
-129 -23 -136 -12 -6 9 51 31 84 31 35 0 138 61 185 109 47 48 65 61 65 44z
m-400 -14 c0 -15 -107 -61 -236 -102 -288 -91 -484 -96 -484 -12 0 31 22 33
35 3 18 -41 67 -44 212 -15 145 29 347 88 402 117 40 21 71 25 71 9z m785 -18
c-16 -31 -33 -47 -41 -38 -10 9 26 67 42 67 13 0 13 -3 -1 -29z m-575 9 c0
-14 -55 -40 -84 -40 -36 0 -42 18 -9 25 15 4 37 10 48 15 27 12 45 12 45 0z
m57 -46 c-40 -34 -136 -59 -212 -55 -37 2 -1 20 72 35 39 8 91 23 115 34 53
23 62 18 25 -14z"/>
</g>
</svg>
